<mxfile host="app.diagrams.net" agent="Mozilla/5.0 (Windows NT 10.0; Win64; x64) AppleWebKit/537.36 (KHTML, like Gecko) Chrome/122.0.0.0 Safari/537.36" version="24.7.12">
  <diagram id="RR1sQLUmgiOuDl6Bs_eH" name="Trang-1">
    <mxGraphModel dx="1050" dy="557" grid="1" gridSize="10" guides="1" tooltips="1" connect="1" arrows="1" fold="1" page="1" pageScale="1" pageWidth="827" pageHeight="1169" math="0" shadow="0">
      <root>
        <mxCell id="0" />
        <mxCell id="1" parent="0" />
        <mxCell id="BJG9GIXf9jRXULEWagIp-1" value="Cửa hàng" style="shape=umlActor;verticalLabelPosition=bottom;verticalAlign=top;html=1;outlineConnect=0;" vertex="1" parent="1">
          <mxGeometry x="130" y="230" width="30" height="60" as="geometry" />
        </mxCell>
        <mxCell id="BJG9GIXf9jRXULEWagIp-2" value="" style="endArrow=none;html=1;rounded=0;exitX=1;exitY=0.3333333333333333;exitDx=0;exitDy=0;exitPerimeter=0;entryX=0;entryY=0.5;entryDx=0;entryDy=0;" edge="1" parent="1" source="BJG9GIXf9jRXULEWagIp-1" target="BJG9GIXf9jRXULEWagIp-3">
          <mxGeometry width="50" height="50" relative="1" as="geometry">
            <mxPoint x="360" y="360" as="sourcePoint" />
            <mxPoint x="240" y="210" as="targetPoint" />
          </mxGeometry>
        </mxCell>
        <mxCell id="BJG9GIXf9jRXULEWagIp-3" value="Kiểm tra số lượng hàng tồn kho" style="ellipse;whiteSpace=wrap;html=1;" vertex="1" parent="1">
          <mxGeometry x="240" y="130" width="170" height="60" as="geometry" />
        </mxCell>
        <mxCell id="BJG9GIXf9jRXULEWagIp-5" value="Kiểm tra số lượng hàng nhập" style="ellipse;whiteSpace=wrap;html=1;" vertex="1" parent="1">
          <mxGeometry x="240" y="190" width="170" height="60" as="geometry" />
        </mxCell>
        <mxCell id="BJG9GIXf9jRXULEWagIp-6" value="" style="endArrow=none;html=1;rounded=0;exitX=1;exitY=0.3333333333333333;exitDx=0;exitDy=0;exitPerimeter=0;entryX=0;entryY=0.5;entryDx=0;entryDy=0;" edge="1" parent="1" source="BJG9GIXf9jRXULEWagIp-1" target="BJG9GIXf9jRXULEWagIp-5">
          <mxGeometry width="50" height="50" relative="1" as="geometry">
            <mxPoint x="150" y="460" as="sourcePoint" />
            <mxPoint x="200" y="410" as="targetPoint" />
          </mxGeometry>
        </mxCell>
        <mxCell id="BJG9GIXf9jRXULEWagIp-7" value="Cập nhật số lượng hàng hóa" style="ellipse;whiteSpace=wrap;html=1;" vertex="1" parent="1">
          <mxGeometry x="240" y="260" width="170" height="60" as="geometry" />
        </mxCell>
        <mxCell id="BJG9GIXf9jRXULEWagIp-8" value="" style="endArrow=none;html=1;rounded=0;entryX=0;entryY=0.5;entryDx=0;entryDy=0;" edge="1" parent="1" target="BJG9GIXf9jRXULEWagIp-7">
          <mxGeometry width="50" height="50" relative="1" as="geometry">
            <mxPoint x="160" y="250" as="sourcePoint" />
            <mxPoint x="250" y="230" as="targetPoint" />
          </mxGeometry>
        </mxCell>
        <mxCell id="BJG9GIXf9jRXULEWagIp-9" value="extend" style="endArrow=open;endSize=12;dashed=1;html=1;rounded=0;exitX=-0.028;exitY=0.63;exitDx=0;exitDy=0;exitPerimeter=0;" edge="1" parent="1" source="BJG9GIXf9jRXULEWagIp-12" target="BJG9GIXf9jRXULEWagIp-7">
          <mxGeometry width="160" relative="1" as="geometry">
            <mxPoint x="470" y="230" as="sourcePoint" />
            <mxPoint x="790" y="340" as="targetPoint" />
          </mxGeometry>
        </mxCell>
        <mxCell id="BJG9GIXf9jRXULEWagIp-10" value="extend" style="endArrow=open;endSize=12;dashed=1;html=1;rounded=0;entryX=0.929;entryY=0.777;entryDx=0;entryDy=0;entryPerimeter=0;exitX=0;exitY=0.5;exitDx=0;exitDy=0;" edge="1" parent="1" source="BJG9GIXf9jRXULEWagIp-15" target="BJG9GIXf9jRXULEWagIp-7">
          <mxGeometry width="160" relative="1" as="geometry">
            <mxPoint x="470" y="320" as="sourcePoint" />
            <mxPoint x="420" y="441" as="targetPoint" />
          </mxGeometry>
        </mxCell>
        <mxCell id="BJG9GIXf9jRXULEWagIp-11" value="extend" style="endArrow=open;endSize=12;dashed=1;html=1;rounded=0;exitX=-0.004;exitY=0.326;exitDx=0;exitDy=0;exitPerimeter=0;" edge="1" parent="1" source="BJG9GIXf9jRXULEWagIp-16" target="BJG9GIXf9jRXULEWagIp-7">
          <mxGeometry width="160" relative="1" as="geometry">
            <mxPoint x="440" y="350" as="sourcePoint" />
            <mxPoint x="370" y="421" as="targetPoint" />
          </mxGeometry>
        </mxCell>
        <mxCell id="BJG9GIXf9jRXULEWagIp-12" value="Tăng số lượng" style="ellipse;whiteSpace=wrap;html=1;" vertex="1" parent="1">
          <mxGeometry x="460" y="202.5" width="100" height="40" as="geometry" />
        </mxCell>
        <mxCell id="BJG9GIXf9jRXULEWagIp-13" value="extend" style="endArrow=open;endSize=12;dashed=1;html=1;rounded=0;exitX=-0.028;exitY=0.63;exitDx=0;exitDy=0;exitPerimeter=0;entryX=0.906;entryY=0.27;entryDx=0;entryDy=0;entryPerimeter=0;" edge="1" parent="1" source="BJG9GIXf9jRXULEWagIp-14" target="BJG9GIXf9jRXULEWagIp-7">
          <mxGeometry width="160" relative="1" as="geometry">
            <mxPoint x="504.5" y="285" as="sourcePoint" />
            <mxPoint x="405.5" y="320" as="targetPoint" />
          </mxGeometry>
        </mxCell>
        <mxCell id="BJG9GIXf9jRXULEWagIp-14" value="Giảm số lượng" style="ellipse;whiteSpace=wrap;html=1;" vertex="1" parent="1">
          <mxGeometry x="470" y="252.5" width="100" height="35" as="geometry" />
        </mxCell>
        <mxCell id="BJG9GIXf9jRXULEWagIp-15" value="Xóa" style="ellipse;whiteSpace=wrap;html=1;" vertex="1" parent="1">
          <mxGeometry x="490" y="297.5" width="100" height="35" as="geometry" />
        </mxCell>
        <mxCell id="BJG9GIXf9jRXULEWagIp-16" value="Thêm hàng mới" style="ellipse;whiteSpace=wrap;html=1;" vertex="1" parent="1">
          <mxGeometry x="480" y="342.5" width="100" height="35" as="geometry" />
        </mxCell>
      </root>
    </mxGraphModel>
  </diagram>
</mxfile>
